<mxfile host="app.diagrams.net" modified="2022-05-21T04:15:53.637Z" agent="5.0 (Windows)" etag="fNc-V63ETiOpI2BNdyCK" version="18.1.1" type="github">
  <diagram id="a45cf8ec-cd66-6f27-3ac3-be6e809c9e4a" name="Page-1">
    <mxGraphModel dx="1016" dy="537" grid="1" gridSize="10" guides="1" tooltips="1" connect="1" arrows="1" fold="1" page="1" pageScale="1" pageWidth="827" pageHeight="1169" background="none" math="0" shadow="0">
      <root>
        <mxCell id="0" />
        <mxCell id="1" parent="0" />
        <mxCell id="ka4S1exxNAKGJL7n9PdP-257" style="edgeStyle=orthogonalEdgeStyle;rounded=0;orthogonalLoop=1;jettySize=auto;html=1;fontSize=20;elbow=vertical;" edge="1" parent="1" source="ka4S1exxNAKGJL7n9PdP-245" target="ka4S1exxNAKGJL7n9PdP-247">
          <mxGeometry relative="1" as="geometry">
            <Array as="points">
              <mxPoint x="634" y="680" />
            </Array>
          </mxGeometry>
        </mxCell>
        <mxCell id="16" value="地下室机柜" style="rounded=1;whiteSpace=wrap;html=1;shadow=0;strokeColor=none;fillColor=#BAC8D3;gradientColor=none;fontSize=18;fontColor=#AE4132;verticalAlign=bottom;fontStyle=0;opacity=40;strokeWidth=3;" parent="1" vertex="1">
          <mxGeometry x="15" y="460" width="908" height="490" as="geometry" />
        </mxCell>
        <mxCell id="ka4S1exxNAKGJL7n9PdP-248" value="" style="verticalLabelPosition=bottom;sketch=0;aspect=fixed;html=1;verticalAlign=top;strokeColor=none;align=center;outlineConnect=0;shape=mxgraph.citrix.datacenter;fontSize=20;" vertex="1" parent="1">
          <mxGeometry x="660" y="743.84" width="133.57" height="141.43" as="geometry" />
        </mxCell>
        <mxCell id="ka4S1exxNAKGJL7n9PdP-241" value="" style="verticalLabelPosition=bottom;sketch=0;aspect=fixed;html=1;verticalAlign=top;strokeColor=none;align=center;outlineConnect=0;shape=mxgraph.citrix.datacenter;fontSize=20;" vertex="1" parent="1">
          <mxGeometry x="258.2099999999999" y="540" width="123.57" height="130.84" as="geometry" />
        </mxCell>
        <mxCell id="ka4S1exxNAKGJL7n9PdP-236" value="服务器组01&amp;nbsp;&amp;nbsp;&amp;nbsp;&amp;nbsp;&amp;nbsp;&amp;nbsp;&amp;nbsp;&amp;nbsp;&amp;nbsp;&amp;nbsp;&amp;nbsp; " style="verticalLabelPosition=bottom;sketch=0;aspect=fixed;html=1;verticalAlign=top;strokeColor=none;align=center;outlineConnect=0;shape=mxgraph.citrix.license_server;fontSize=20;" vertex="1" parent="1">
          <mxGeometry x="320" y="600" width="65" height="85" as="geometry" />
        </mxCell>
        <mxCell id="10" value="&lt;span style=&quot;line-height: 17.1818180084229px&quot;&gt;Section 2&lt;/span&gt;&lt;br&gt;" style="rounded=1;whiteSpace=wrap;html=1;shadow=0;strokeColor=none;fillColor=#BAC8D3;gradientColor=none;fontSize=18;fontColor=#AE4132;verticalAlign=top;opacity=70;fontStyle=0;strokeWidth=3;" parent="1" vertex="1">
          <mxGeometry x="900" y="79" width="300" height="108" as="geometry" />
        </mxCell>
        <mxCell id="168" value="网络拓扑图" style="text;html=1;strokeColor=none;fillColor=none;align=center;verticalAlign=middle;whiteSpace=wrap;overflow=hidden;shadow=0;fontSize=36;fontColor=#AE4132;fontStyle=0" parent="1" vertex="1">
          <mxGeometry x="15" y="10" width="200" height="45" as="geometry" />
        </mxCell>
        <mxCell id="171" style="edgeStyle=orthogonalEdgeStyle;rounded=0;jumpStyle=none;html=1;exitX=0;exitY=0.5;entryX=0;entryY=0.5;shadow=0;labelBackgroundColor=none;startArrow=none;startFill=0;endArrow=classic;endFill=1;endSize=6;jettySize=auto;orthogonalLoop=1;strokeColor=#23445D;strokeWidth=2;fillColor=#F08705;fontFamily=Helvetica;fontSize=14;fontColor=#F08705;align=left;fontStyle=0" parent="1" source="168" target="168" edge="1">
          <mxGeometry relative="1" as="geometry" />
        </mxCell>
        <mxCell id="ka4S1exxNAKGJL7n9PdP-172" value="&lt;font style=&quot;font-size: 20px;&quot;&gt;电信专线&lt;br&gt;&lt;/font&gt;" style="verticalLabelPosition=bottom;sketch=0;aspect=fixed;html=1;verticalAlign=top;strokeColor=none;align=center;outlineConnect=0;shape=mxgraph.citrix.cloud;" vertex="1" parent="1">
          <mxGeometry x="50" y="220" width="100" height="65.26" as="geometry" />
        </mxCell>
        <mxCell id="ka4S1exxNAKGJL7n9PdP-184" value="" style="edgeStyle=orthogonalEdgeStyle;rounded=0;orthogonalLoop=1;jettySize=auto;html=1;fontSize=20;entryX=1;entryY=0.731;entryDx=0;entryDy=0;entryPerimeter=0;" edge="1" parent="1" source="ka4S1exxNAKGJL7n9PdP-180" target="ka4S1exxNAKGJL7n9PdP-179">
          <mxGeometry relative="1" as="geometry">
            <Array as="points">
              <mxPoint x="390" y="383" />
              <mxPoint x="390" y="260" />
            </Array>
          </mxGeometry>
        </mxCell>
        <mxCell id="ka4S1exxNAKGJL7n9PdP-179" value="旁路监控" style="verticalLabelPosition=bottom;sketch=0;aspect=fixed;html=1;verticalAlign=top;strokeColor=none;align=center;outlineConnect=0;shape=mxgraph.citrix.netscaler_gateway;fontSize=20;" vertex="1" parent="1">
          <mxGeometry x="270" y="231.5" width="100" height="39" as="geometry" />
        </mxCell>
        <mxCell id="ka4S1exxNAKGJL7n9PdP-180" value="调制解调器&amp;amp;防火墙" style="verticalLabelPosition=bottom;sketch=0;aspect=fixed;html=1;verticalAlign=top;strokeColor=none;align=center;outlineConnect=0;shape=mxgraph.citrix.firewall;fontSize=20;" vertex="1" parent="1">
          <mxGeometry x="279.68" y="333" width="80.65" height="100" as="geometry" />
        </mxCell>
        <mxCell id="ka4S1exxNAKGJL7n9PdP-181" value="" style="verticalLabelPosition=bottom;sketch=0;aspect=fixed;html=1;verticalAlign=top;strokeColor=none;align=center;outlineConnect=0;shape=mxgraph.citrix.chassis;fontSize=20;" vertex="1" parent="1">
          <mxGeometry x="259.99774647887324" y="340" width="72.04225352112675" height="93" as="geometry" />
        </mxCell>
        <mxCell id="ka4S1exxNAKGJL7n9PdP-183" value="" style="endArrow=classic;startArrow=classic;html=1;rounded=0;fontSize=20;" edge="1" parent="1" source="ka4S1exxNAKGJL7n9PdP-172" target="ka4S1exxNAKGJL7n9PdP-181">
          <mxGeometry width="50" height="50" relative="1" as="geometry">
            <mxPoint x="160" y="300" as="sourcePoint" />
            <mxPoint x="210" y="250" as="targetPoint" />
            <Array as="points">
              <mxPoint x="190" y="253" />
              <mxPoint x="190" y="387" />
            </Array>
          </mxGeometry>
        </mxCell>
        <mxCell id="ka4S1exxNAKGJL7n9PdP-215" style="edgeStyle=entityRelationEdgeStyle;rounded=0;orthogonalLoop=1;jettySize=auto;html=1;fontSize=20;" edge="1" parent="1" source="ka4S1exxNAKGJL7n9PdP-193" target="ka4S1exxNAKGJL7n9PdP-197">
          <mxGeometry relative="1" as="geometry" />
        </mxCell>
        <mxCell id="ka4S1exxNAKGJL7n9PdP-193" value="RADOS" style="verticalLabelPosition=bottom;sketch=0;aspect=fixed;html=1;verticalAlign=top;strokeColor=none;align=center;outlineConnect=0;shape=mxgraph.citrix.1u_2u_server;fontSize=20;" vertex="1" parent="1">
          <mxGeometry x="76.5" y="673.84" width="100" height="39.1" as="geometry" />
        </mxCell>
        <mxCell id="ka4S1exxNAKGJL7n9PdP-214" style="edgeStyle=entityRelationEdgeStyle;rounded=0;orthogonalLoop=1;jettySize=auto;html=1;fontSize=20;" edge="1" parent="1" source="ka4S1exxNAKGJL7n9PdP-194" target="ka4S1exxNAKGJL7n9PdP-196">
          <mxGeometry relative="1" as="geometry" />
        </mxCell>
        <mxCell id="ka4S1exxNAKGJL7n9PdP-216" style="edgeStyle=elbowEdgeStyle;rounded=0;orthogonalLoop=1;jettySize=auto;html=1;fontSize=20;elbow=vertical;exitX=0.841;exitY=0.742;exitDx=0;exitDy=0;exitPerimeter=0;entryX=0.569;entryY=0.016;entryDx=0;entryDy=0;entryPerimeter=0;" edge="1" parent="1" source="ka4S1exxNAKGJL7n9PdP-194" target="ka4S1exxNAKGJL7n9PdP-217">
          <mxGeometry relative="1" as="geometry">
            <mxPoint x="670" y="420" as="targetPoint" />
            <Array as="points">
              <mxPoint x="720" y="490" />
            </Array>
          </mxGeometry>
        </mxCell>
        <mxCell id="ka4S1exxNAKGJL7n9PdP-194" value="主交换机" style="verticalLabelPosition=bottom;sketch=0;aspect=fixed;html=1;verticalAlign=top;strokeColor=none;align=center;outlineConnect=0;shape=mxgraph.citrix.1u_2u_server;fontSize=20;" vertex="1" parent="1">
          <mxGeometry x="490" y="300" width="145.78" height="57" as="geometry" />
        </mxCell>
        <mxCell id="ka4S1exxNAKGJL7n9PdP-213" value="" style="edgeStyle=entityRelationEdgeStyle;rounded=0;orthogonalLoop=1;jettySize=auto;html=1;fontSize=20;" edge="1" parent="1" source="ka4S1exxNAKGJL7n9PdP-196" target="ka4S1exxNAKGJL7n9PdP-193">
          <mxGeometry relative="1" as="geometry" />
        </mxCell>
        <mxCell id="ka4S1exxNAKGJL7n9PdP-196" value="CEPH" style="verticalLabelPosition=bottom;sketch=0;aspect=fixed;html=1;verticalAlign=top;strokeColor=none;align=center;outlineConnect=0;shape=mxgraph.citrix.dns_server;fontSize=20;" vertex="1" parent="1">
          <mxGeometry x="100" y="546.6" width="76.5" height="92.5" as="geometry" />
        </mxCell>
        <mxCell id="ka4S1exxNAKGJL7n9PdP-197" value="DL380 GEN9 存储节点" style="verticalLabelPosition=bottom;sketch=0;aspect=fixed;html=1;verticalAlign=top;strokeColor=none;align=center;outlineConnect=0;shape=mxgraph.citrix.netscaler_sdx;fontSize=20;" vertex="1" parent="1">
          <mxGeometry x="50" y="783.84" width="162.11" height="77" as="geometry" />
        </mxCell>
        <mxCell id="ka4S1exxNAKGJL7n9PdP-200" value="" style="endArrow=classic;html=1;rounded=0;fontSize=20;" edge="1" parent="1" source="ka4S1exxNAKGJL7n9PdP-179" target="ka4S1exxNAKGJL7n9PdP-194">
          <mxGeometry width="50" height="50" relative="1" as="geometry">
            <mxPoint x="500" y="370" as="sourcePoint" />
            <mxPoint x="570" y="390" as="targetPoint" />
            <Array as="points">
              <mxPoint x="563" y="250" />
            </Array>
          </mxGeometry>
        </mxCell>
        <mxCell id="ka4S1exxNAKGJL7n9PdP-201" value="主路由" style="verticalLabelPosition=bottom;sketch=0;aspect=fixed;html=1;verticalAlign=top;strokeColor=none;align=center;outlineConnect=0;shape=mxgraph.citrix.router;fontSize=20;" vertex="1" parent="1">
          <mxGeometry x="430" y="380" width="66.3" height="44" as="geometry" />
        </mxCell>
        <mxCell id="ka4S1exxNAKGJL7n9PdP-203" value="" style="shape=flexArrow;endArrow=classic;html=1;rounded=0;fontSize=20;width=5;endSize=2.725925925925926;endWidth=5.37037037037037;" edge="1" parent="1" source="ka4S1exxNAKGJL7n9PdP-180" target="ka4S1exxNAKGJL7n9PdP-201">
          <mxGeometry width="50" height="50" relative="1" as="geometry">
            <mxPoint x="380" y="433" as="sourcePoint" />
            <mxPoint x="430" y="383" as="targetPoint" />
            <Array as="points">
              <mxPoint x="360" y="400" />
              <mxPoint x="370" y="400" />
              <mxPoint x="380" y="400" />
              <mxPoint x="390" y="400" />
              <mxPoint x="420" y="400" />
            </Array>
          </mxGeometry>
        </mxCell>
        <mxCell id="ka4S1exxNAKGJL7n9PdP-211" value="" style="endArrow=classic;html=1;rounded=0;fontSize=20;" edge="1" parent="1" source="ka4S1exxNAKGJL7n9PdP-201" target="ka4S1exxNAKGJL7n9PdP-194">
          <mxGeometry width="50" height="50" relative="1" as="geometry">
            <mxPoint x="480" y="370" as="sourcePoint" />
            <mxPoint x="480" y="320" as="targetPoint" />
            <Array as="points">
              <mxPoint x="470" y="330" />
            </Array>
          </mxGeometry>
        </mxCell>
        <mxCell id="ka4S1exxNAKGJL7n9PdP-212" value="" style="verticalLabelPosition=bottom;sketch=0;aspect=fixed;html=1;verticalAlign=top;strokeColor=none;align=center;outlineConnect=0;shape=mxgraph.citrix.netscaler_sdx;fontSize=20;" vertex="1" parent="1">
          <mxGeometry x="50" y="743.84" width="162.11" height="77" as="geometry" />
        </mxCell>
        <mxCell id="ka4S1exxNAKGJL7n9PdP-260" style="edgeStyle=orthogonalEdgeStyle;rounded=0;orthogonalLoop=1;jettySize=auto;html=1;fontSize=20;elbow=vertical;" edge="1" parent="1" source="ka4S1exxNAKGJL7n9PdP-217" target="ka4S1exxNAKGJL7n9PdP-218">
          <mxGeometry relative="1" as="geometry">
            <Array as="points">
              <mxPoint x="506" y="535" />
            </Array>
          </mxGeometry>
        </mxCell>
        <mxCell id="ka4S1exxNAKGJL7n9PdP-261" style="edgeStyle=orthogonalEdgeStyle;rounded=0;orthogonalLoop=1;jettySize=auto;html=1;fontSize=20;elbow=vertical;" edge="1" parent="1" source="ka4S1exxNAKGJL7n9PdP-217" target="ka4S1exxNAKGJL7n9PdP-245">
          <mxGeometry relative="1" as="geometry">
            <Array as="points">
              <mxPoint x="634" y="535" />
            </Array>
          </mxGeometry>
        </mxCell>
        <mxCell id="ka4S1exxNAKGJL7n9PdP-217" value="服务器交换机" style="verticalLabelPosition=bottom;sketch=0;aspect=fixed;html=1;verticalAlign=top;strokeColor=none;align=center;outlineConnect=0;shape=mxgraph.citrix.1u_2u_server;fontSize=20;" vertex="1" parent="1">
          <mxGeometry x="720" y="506.6" width="145.78" height="57" as="geometry" />
        </mxCell>
        <mxCell id="ka4S1exxNAKGJL7n9PdP-240" style="edgeStyle=orthogonalEdgeStyle;rounded=0;orthogonalLoop=1;jettySize=auto;html=1;fontSize=20;elbow=vertical;" edge="1" parent="1" source="ka4S1exxNAKGJL7n9PdP-218" target="ka4S1exxNAKGJL7n9PdP-251">
          <mxGeometry relative="1" as="geometry">
            <mxPoint x="498" y="597" as="targetPoint" />
            <Array as="points" />
          </mxGeometry>
        </mxCell>
        <mxCell id="ka4S1exxNAKGJL7n9PdP-218" value="路由" style="verticalLabelPosition=bottom;sketch=0;aspect=fixed;html=1;verticalAlign=top;strokeColor=none;align=center;outlineConnect=0;shape=mxgraph.citrix.netscaler_vpx;fontSize=20;" vertex="1" parent="1">
          <mxGeometry x="462.10999999999996" y="563.6" width="107.78" height="40" as="geometry" />
        </mxCell>
        <mxCell id="ka4S1exxNAKGJL7n9PdP-242" value="" style="verticalLabelPosition=bottom;sketch=0;aspect=fixed;html=1;verticalAlign=top;strokeColor=none;align=center;outlineConnect=0;shape=mxgraph.citrix.datacenter;fontSize=20;" vertex="1" parent="1">
          <mxGeometry x="259.99999999999994" y="730" width="123.57" height="130.84" as="geometry" />
        </mxCell>
        <mxCell id="ka4S1exxNAKGJL7n9PdP-243" value="服务器组02 &amp;nbsp;&amp;nbsp;&amp;nbsp;&amp;nbsp;&amp;nbsp;&amp;nbsp;&amp;nbsp;&amp;nbsp;&amp;nbsp;&amp;nbsp; " style="verticalLabelPosition=bottom;sketch=0;aspect=fixed;html=1;verticalAlign=top;strokeColor=none;align=center;outlineConnect=0;shape=mxgraph.citrix.license_server;fontSize=20;" vertex="1" parent="1">
          <mxGeometry x="321.79" y="790" width="65" height="85" as="geometry" />
        </mxCell>
        <mxCell id="ka4S1exxNAKGJL7n9PdP-245" value="路由" style="verticalLabelPosition=bottom;sketch=0;aspect=fixed;html=1;verticalAlign=top;strokeColor=none;align=center;outlineConnect=0;shape=mxgraph.citrix.netscaler_vpx;fontSize=20;" vertex="1" parent="1">
          <mxGeometry x="580" y="565" width="107.78" height="40" as="geometry" />
        </mxCell>
        <mxCell id="ka4S1exxNAKGJL7n9PdP-247" value="E7集群&amp;nbsp;&amp;nbsp;&amp;nbsp;&amp;nbsp;&amp;nbsp;&amp;nbsp;&amp;nbsp;&amp;nbsp;&amp;nbsp;&amp;nbsp;&amp;nbsp;&amp;nbsp; " style="verticalLabelPosition=bottom;sketch=0;aspect=fixed;html=1;verticalAlign=top;strokeColor=none;align=center;outlineConnect=0;shape=mxgraph.citrix.pbx_server;fontSize=20;" vertex="1" parent="1">
          <mxGeometry x="730" y="780.84" width="84.12" height="110" as="geometry" />
        </mxCell>
        <mxCell id="ka4S1exxNAKGJL7n9PdP-253" style="edgeStyle=orthogonalEdgeStyle;rounded=0;orthogonalLoop=1;jettySize=auto;html=1;fontSize=20;elbow=vertical;" edge="1" parent="1" source="ka4S1exxNAKGJL7n9PdP-251" target="ka4S1exxNAKGJL7n9PdP-236">
          <mxGeometry relative="1" as="geometry">
            <Array as="points">
              <mxPoint x="410" y="723" />
              <mxPoint x="410" y="642" />
            </Array>
          </mxGeometry>
        </mxCell>
        <mxCell id="ka4S1exxNAKGJL7n9PdP-254" style="edgeStyle=orthogonalEdgeStyle;rounded=0;orthogonalLoop=1;jettySize=auto;html=1;fontSize=20;elbow=vertical;exitX=0.326;exitY=0.907;exitDx=0;exitDy=0;exitPerimeter=0;" edge="1" parent="1" source="ka4S1exxNAKGJL7n9PdP-251" target="ka4S1exxNAKGJL7n9PdP-243">
          <mxGeometry relative="1" as="geometry">
            <Array as="points">
              <mxPoint x="500" y="723" />
              <mxPoint x="410" y="723" />
              <mxPoint x="410" y="833" />
            </Array>
          </mxGeometry>
        </mxCell>
        <mxCell id="ka4S1exxNAKGJL7n9PdP-263" style="edgeStyle=orthogonalEdgeStyle;rounded=0;orthogonalLoop=1;jettySize=auto;html=1;fontSize=20;elbow=vertical;" edge="1" parent="1" source="ka4S1exxNAKGJL7n9PdP-251" target="ka4S1exxNAKGJL7n9PdP-256">
          <mxGeometry relative="1" as="geometry">
            <Array as="points">
              <mxPoint x="580" y="723" />
              <mxPoint x="580" y="847" />
            </Array>
          </mxGeometry>
        </mxCell>
        <mxCell id="ka4S1exxNAKGJL7n9PdP-251" value="HUB" style="verticalLabelPosition=bottom;sketch=0;aspect=fixed;html=1;verticalAlign=top;strokeColor=none;align=center;outlineConnect=0;shape=mxgraph.citrix.remote_office;fontSize=20;" vertex="1" parent="1">
          <mxGeometry x="470" y="702.34" width="92" height="41.5" as="geometry" />
        </mxCell>
        <mxCell id="ka4S1exxNAKGJL7n9PdP-256" value="监控" style="verticalLabelPosition=bottom;sketch=0;aspect=fixed;html=1;verticalAlign=top;strokeColor=none;align=center;outlineConnect=0;shape=mxgraph.citrix.laptop_1;fontSize=20;" vertex="1" parent="1">
          <mxGeometry x="468.89" y="808.27" width="91" height="77" as="geometry" />
        </mxCell>
      </root>
    </mxGraphModel>
  </diagram>
</mxfile>
